<mxfile host="app.diagrams.net" modified="2024-05-28T21:29:49.204Z" agent="Mozilla/5.0 (Windows NT 10.0; Win64; x64) AppleWebKit/537.36 (KHTML, like Gecko) Chrome/124.0.0.0 Safari/537.36 OPR/110.0.0.0" etag="Of3qUxGKFN-Qufc2Gd4F" version="24.4.9" type="device">
  <diagram name="Page-1" id="8FTzDNvuM8sQC45usiKm">
    <mxGraphModel dx="2046" dy="1056" grid="1" gridSize="10" guides="1" tooltips="1" connect="1" arrows="1" fold="1" page="1" pageScale="1" pageWidth="850" pageHeight="1100" math="0" shadow="0">
      <root>
        <mxCell id="0" />
        <mxCell id="1" parent="0" />
        <mxCell id="y4vut1xwsYRLtzIjSQgU-1" value="" style="rounded=0;whiteSpace=wrap;html=1;" parent="1" vertex="1">
          <mxGeometry x="40" y="800" width="800" height="40" as="geometry" />
        </mxCell>
        <mxCell id="CszQ9GpSS3QGuANNsZSQ-2" value="" style="rounded=0;whiteSpace=wrap;html=1;rotation=-90;" vertex="1" parent="1">
          <mxGeometry x="440" y="400" width="840" height="40" as="geometry" />
        </mxCell>
        <mxCell id="CszQ9GpSS3QGuANNsZSQ-3" value="" style="rounded=0;whiteSpace=wrap;html=1;" vertex="1" parent="1">
          <mxGeometry x="40" width="680" height="40" as="geometry" />
        </mxCell>
        <mxCell id="CszQ9GpSS3QGuANNsZSQ-4" value="" style="rounded=0;whiteSpace=wrap;html=1;rotation=-90;" vertex="1" parent="1">
          <mxGeometry x="-400" y="400" width="840" height="40" as="geometry" />
        </mxCell>
        <mxCell id="CszQ9GpSS3QGuANNsZSQ-5" value="" style="rounded=0;whiteSpace=wrap;html=1;" vertex="1" parent="1">
          <mxGeometry x="800" width="40" height="40" as="geometry" />
        </mxCell>
        <mxCell id="CszQ9GpSS3QGuANNsZSQ-6" value="&lt;font style=&quot;font-size: 21px;&quot;&gt;Exit&lt;/font&gt;" style="text;html=1;align=center;verticalAlign=middle;whiteSpace=wrap;rounded=0;" vertex="1" parent="1">
          <mxGeometry x="720" width="80" height="40" as="geometry" />
        </mxCell>
        <mxCell id="CszQ9GpSS3QGuANNsZSQ-7" value="" style="rounded=0;whiteSpace=wrap;html=1;rotation=-90;" vertex="1" parent="1">
          <mxGeometry x="339.38" y="60.01" width="80" height="40" as="geometry" />
        </mxCell>
        <mxCell id="CszQ9GpSS3QGuANNsZSQ-8" value="" style="rounded=0;whiteSpace=wrap;html=1;" vertex="1" parent="1">
          <mxGeometry x="200" y="200" width="400" height="40" as="geometry" />
        </mxCell>
        <mxCell id="CszQ9GpSS3QGuANNsZSQ-10" value="" style="rounded=0;whiteSpace=wrap;html=1;" vertex="1" parent="1">
          <mxGeometry x="690" y="200" width="150" height="40" as="geometry" />
        </mxCell>
        <mxCell id="CszQ9GpSS3QGuANNsZSQ-11" value="" style="rounded=0;whiteSpace=wrap;html=1;" vertex="1" parent="1">
          <mxGeometry x="40" y="400" width="480" height="40" as="geometry" />
        </mxCell>
        <mxCell id="CszQ9GpSS3QGuANNsZSQ-12" value="" style="rounded=0;whiteSpace=wrap;html=1;" vertex="1" parent="1">
          <mxGeometry x="640" y="360" width="200" height="80" as="geometry" />
        </mxCell>
        <mxCell id="CszQ9GpSS3QGuANNsZSQ-13" value="Actor" style="shape=umlActor;verticalLabelPosition=bottom;verticalAlign=top;html=1;outlineConnect=0;fillColor=#f8cecc;strokeColor=#b85450;gradientColor=#ea6b66;" vertex="1" parent="1">
          <mxGeometry x="520" y="90.63" width="40" height="109.37" as="geometry" />
        </mxCell>
        <mxCell id="CszQ9GpSS3QGuANNsZSQ-17" value="" style="rounded=1;whiteSpace=wrap;html=1;fillColor=#f5f5f5;strokeColor=#666666;gradientColor=#b3b3b3;" vertex="1" parent="1">
          <mxGeometry x="40" y="280" width="100" height="40" as="geometry" />
        </mxCell>
        <mxCell id="CszQ9GpSS3QGuANNsZSQ-18" value="" style="rounded=1;whiteSpace=wrap;html=1;fillColor=#f5f5f5;strokeColor=#666666;gradientColor=#b3b3b3;" vertex="1" parent="1">
          <mxGeometry x="720" y="120" width="80" height="40" as="geometry" />
        </mxCell>
        <mxCell id="CszQ9GpSS3QGuANNsZSQ-20" value="" style="rounded=1;whiteSpace=wrap;html=1;fillColor=#f5f5f5;strokeColor=#666666;gradientColor=#b3b3b3;" vertex="1" parent="1">
          <mxGeometry x="590" y="520" width="120" height="40" as="geometry" />
        </mxCell>
        <mxCell id="CszQ9GpSS3QGuANNsZSQ-21" value="Actor" style="shape=umlActor;verticalLabelPosition=bottom;verticalAlign=top;html=1;outlineConnect=0;fillColor=none;strokeColor=default;shadow=0;" vertex="1" parent="1">
          <mxGeometry x="80" y="730" width="40" height="70" as="geometry" />
        </mxCell>
        <mxCell id="CszQ9GpSS3QGuANNsZSQ-22" value="Actor" style="shape=umlActor;verticalLabelPosition=bottom;verticalAlign=top;html=1;outlineConnect=0;fillColor=#f8cecc;strokeColor=#b85450;gradientColor=#ea6b66;" vertex="1" parent="1">
          <mxGeometry x="620" y="690.63" width="40" height="109.37" as="geometry" />
        </mxCell>
        <mxCell id="CszQ9GpSS3QGuANNsZSQ-23" value="" style="triangle;whiteSpace=wrap;html=1;rotation=-90;" vertex="1" parent="1">
          <mxGeometry x="360" y="680" width="160" height="80" as="geometry" />
        </mxCell>
        <mxCell id="CszQ9GpSS3QGuANNsZSQ-24" value="Rubblle" style="text;html=1;align=center;verticalAlign=middle;whiteSpace=wrap;rounded=0;" vertex="1" parent="1">
          <mxGeometry x="410" y="760" width="60" height="30" as="geometry" />
        </mxCell>
        <mxCell id="CszQ9GpSS3QGuANNsZSQ-25" value="" style="rounded=1;whiteSpace=wrap;html=1;fillColor=#f5f5f5;strokeColor=#666666;gradientColor=#b3b3b3;" vertex="1" parent="1">
          <mxGeometry x="160" y="520" width="130" height="40" as="geometry" />
        </mxCell>
        <mxCell id="CszQ9GpSS3QGuANNsZSQ-26" value="" style="rounded=1;whiteSpace=wrap;html=1;fillColor=#f5f5f5;strokeColor=#666666;gradientColor=#b3b3b3;" vertex="1" parent="1">
          <mxGeometry x="375" y="520" width="130" height="40" as="geometry" />
        </mxCell>
        <mxCell id="CszQ9GpSS3QGuANNsZSQ-27" value="" style="rounded=0;whiteSpace=wrap;html=1;" vertex="1" parent="1">
          <mxGeometry x="40" y="640" width="120" height="40" as="geometry" />
        </mxCell>
        <mxCell id="CszQ9GpSS3QGuANNsZSQ-30" value="" style="rounded=0;whiteSpace=wrap;html=1;rotation=-90;" vertex="1" parent="1">
          <mxGeometry x="359.07" y="159.69" width="40.62" height="40" as="geometry" />
        </mxCell>
        <mxCell id="CszQ9GpSS3QGuANNsZSQ-33" style="edgeStyle=orthogonalEdgeStyle;rounded=0;orthogonalLoop=1;jettySize=auto;html=1;" edge="1" parent="1" source="CszQ9GpSS3QGuANNsZSQ-32" target="CszQ9GpSS3QGuANNsZSQ-13">
          <mxGeometry relative="1" as="geometry">
            <Array as="points">
              <mxPoint x="430" y="140" />
              <mxPoint x="430" y="140" />
            </Array>
          </mxGeometry>
        </mxCell>
        <mxCell id="CszQ9GpSS3QGuANNsZSQ-32" value="" style="shape=cylinder3;whiteSpace=wrap;html=1;boundedLbl=1;backgroundOutline=1;size=15;fillColor=#fad9d5;strokeColor=#ae4132;sketch=1;curveFitting=1;jiggle=2;" vertex="1" parent="1">
          <mxGeometry x="220" y="50" width="60" height="150" as="geometry" />
        </mxCell>
        <mxCell id="CszQ9GpSS3QGuANNsZSQ-34" value="Shoot red&amp;nbsp;" style="text;html=1;align=center;verticalAlign=middle;whiteSpace=wrap;rounded=0;" vertex="1" parent="1">
          <mxGeometry x="290" y="120" width="60" height="30" as="geometry" />
        </mxCell>
        <mxCell id="CszQ9GpSS3QGuANNsZSQ-39" value="&lt;h1 style=&quot;margin-top: 0px;&quot;&gt;Level 1&lt;/h1&gt;&lt;p&gt;&lt;br&gt;&lt;/p&gt;" style="text;html=1;whiteSpace=wrap;overflow=hidden;rounded=0;" vertex="1" parent="1">
          <mxGeometry x="40" width="180" height="40" as="geometry" />
        </mxCell>
      </root>
    </mxGraphModel>
  </diagram>
</mxfile>
